<?xml version="1.0" encoding="UTF-8" standalone="no"?>
<!-- Created with Inkscape (http://www.inkscape.org/) -->

<svg
   xmlns:dc="http://purl.org/dc/elements/1.1/"
   xmlns:cc="http://creativecommons.org/ns#"
   xmlns:rdf="http://www.w3.org/1999/02/22-rdf-syntax-ns#"
   xmlns:svg="http://www.w3.org/2000/svg"
   xmlns="http://www.w3.org/2000/svg"
   xmlns:sodipodi="http://sodipodi.sourceforge.net/DTD/sodipodi-0.dtd"
   xmlns:inkscape="http://www.inkscape.org/namespaces/inkscape"
   sodipodi:docname="commits.svg"
   inkscape:version="0.48.4 r9939"
   version="1.1"
   id="svg2"
   height="215.41721"
   width="503.22391">
  <defs
     id="defs4">
    <marker
       inkscape:stockid="Arrow1Lend"
       orient="auto"
       refY="0"
       refX="0"
       id="Arrow1Lend"
       style="overflow:visible">
      <path
         id="path3818"
         d="M 0,0 5,-5 -12.5,0 5,5 0,0 z"
         style="fill-rule:evenodd;stroke:#000000;stroke-width:1pt"
         transform="matrix(-0.8,0,0,-0.8,-10,0)"
         inkscape:connector-curvature="0" />
    </marker>
    <marker
       inkscape:stockid="TriangleOutL"
       orient="auto"
       refY="0"
       refX="0"
       id="TriangleOutL"
       style="overflow:visible">
      <path
         id="path3957"
         d="m 5.77,0 -8.65,5 0,-10 8.65,5 z"
         style="fill-rule:evenodd;stroke:#000000;stroke-width:1pt"
         transform="scale(0.8,0.8)"
         inkscape:connector-curvature="0" />
    </marker>
    <marker
       inkscape:stockid="EmptyTriangleOutL"
       orient="auto"
       refY="0"
       refX="0"
       id="EmptyTriangleOutL"
       style="overflow:visible">
      <path
         id="path3975"
         d="m 5.77,0 -8.65,5 0,-10 8.65,5 z"
         style="fill:#ffffff;fill-rule:evenodd;stroke:#000000;stroke-width:1pt"
         transform="matrix(0.8,0,0,0.8,-4.8,0)"
         inkscape:connector-curvature="0" />
    </marker>
    <marker
       inkscape:stockid="Arrow2Send"
       orient="auto"
       refY="0"
       refX="0"
       id="Arrow2Send"
       style="overflow:visible">
      <path
         id="path3848"
         style="fill-rule:evenodd;stroke-width:0.625;stroke-linejoin:round"
         d="M 8.7185878,4.0337352 -2.2072895,0.01601326 8.7185884,-4.0017078 c -1.7454984,2.3720609 -1.7354408,5.6174519 -6e-7,8.035443 z"
         transform="matrix(-0.3,0,0,-0.3,0.69,0)"
         inkscape:connector-curvature="0" />
    </marker>
    <marker
       inkscape:stockid="Arrow2Sstart"
       orient="auto"
       refY="0"
       refX="0"
       id="Arrow2Sstart"
       style="overflow:visible">
      <path
         id="path3845"
         style="fill-rule:evenodd;stroke-width:0.625;stroke-linejoin:round"
         d="M 8.7185878,4.0337352 -2.2072895,0.01601326 8.7185884,-4.0017078 c -1.7454984,2.3720609 -1.7354408,5.6174519 -6e-7,8.035443 z"
         transform="matrix(0.3,0,0,0.3,-0.69,0)"
         inkscape:connector-curvature="0" />
    </marker>
    <inkscape:perspective
       sodipodi:type="inkscape:persp3d"
       inkscape:vp_x="-251.61117 : 302.7009 : 1"
       inkscape:vp_y="0 : 390.84169 : 0"
       inkscape:vp_z="-74.20798 : 302.7009 : 1"
       inkscape:persp3d-origin="-162.90958 : 284.95017 : 1"
       id="perspective3793" />
  </defs>
  <sodipodi:namedview
     id="base"
     pagecolor="#ffffff"
     bordercolor="#666666"
     borderopacity="1.0"
     inkscape:pageopacity="0.0"
     inkscape:pageshadow="2"
     inkscape:zoom="1.4"
     inkscape:cx="214.38719"
     inkscape:cy="95.207982"
     inkscape:document-units="px"
     inkscape:current-layer="layer1"
     showgrid="false"
     showguides="true"
     inkscape:guide-bbox="true"
     fit-margin-top="0"
     fit-margin-left="0"
     fit-margin-right="0"
     fit-margin-bottom="0"
     inkscape:window-width="1920"
     inkscape:window-height="1015"
     inkscape:window-x="0"
     inkscape:window-y="28"
     inkscape:window-maximized="1">
    <sodipodi:guide
       orientation="1,0"
       position="-1093.5877,-164.59613"
       id="guide3773" />
    <sodipodi:guide
       orientation="0,1"
       position="114.63101,317.79105"
       id="guide3870" />
  </sodipodi:namedview>
  <metadata
     id="metadata7">
    <rdf:RDF>
      <cc:Work
         rdf:about="">
        <dc:format>image/svg+xml</dc:format>
        <dc:type
           rdf:resource="http://purl.org/dc/dcmitype/StillImage" />
        <dc:title />
      </cc:Work>
    </rdf:RDF>
  </metadata>
  <g
     inkscape:label="Layer 1"
     inkscape:groupmode="layer"
     id="layer1"
     transform="translate(-146.44506,41.936834)">
    <flowRoot
       xml:space="preserve"
       id="flowRoot3868"
       style="font-size:40px;font-style:normal;font-variant:normal;font-stretch:normal;line-height:125%;letter-spacing:0px;word-spacing:0px;fill:#000000;fill-opacity:1;stroke:none;font-family:CPMono_v07;-inkscape-font-specification:CPMono_v07 Semi-Light"
       transform="translate(184.04172,13.828559)"><flowRegion
         id="flowRegion3870"><rect
           id="rect3872"
           width="116.16754"
           height="41.416256"
           x="70.710678"
           y="144.62192" /></flowRegion><flowPara
         id="flowPara3874" /></flowRoot>    <path
       style="fill:none;stroke:#f69a8b;stroke-width:9.34875488;stroke-linecap:butt;stroke-linejoin:miter;stroke-miterlimit:4;stroke-opacity:1;stroke-dasharray:none"
       d="m 163.12344,68.907623 466.48381,0"
       id="path3956"
       inkscape:connector-curvature="0"
       sodipodi:nodetypes="cc" />
    <path
       style="fill:none;stroke:#f69a8b;stroke-width:9.34875488;stroke-linecap:butt;stroke-linejoin:miter;stroke-miterlimit:4;stroke-opacity:1;stroke-dasharray:none"
       d="m 496.05361,-22.946022 134.5076,0"
       id="path3956-5"
       inkscape:connector-curvature="0"
       sodipodi:nodetypes="cc" />
    <path
       style="fill:none;stroke:#f69a8b;stroke-width:9.34875488;stroke-linecap:butt;stroke-linejoin:miter;stroke-miterlimit:4;stroke-opacity:1;stroke-dasharray:none"
       d="m 355.34529,155.4435 134.50761,0"
       id="path3956-5-9"
       inkscape:connector-curvature="0"
       sodipodi:nodetypes="cc" />
    <path
       style="fill:none;stroke:#f69a8b;stroke-width:9.34875488;stroke-linecap:butt;stroke-linejoin:miter;stroke-miterlimit:4;stroke-opacity:1;stroke-dasharray:none"
       d="M 300.96987,70.541538 357.2532,155.4435"
       id="path3956-5-9-2"
       inkscape:connector-curvature="0"
       sodipodi:nodetypes="cc" />
    <path
       style="fill:none;stroke:#f69a8b;stroke-width:9.34875488;stroke-linecap:butt;stroke-linejoin:miter;stroke-miterlimit:4;stroke-opacity:1;stroke-dasharray:none"
       d="M 566.16926,68.156649 486.03707,156.87443"
       id="path3956-5-9-2-5"
       inkscape:connector-curvature="0"
       sodipodi:nodetypes="cc" />
    <path
       style="fill:none;stroke:#f69a8b;stroke-width:9.34875488;stroke-linecap:butt;stroke-linejoin:miter;stroke-miterlimit:4;stroke-opacity:1;stroke-dasharray:none"
       d="M 503.68525,-28.192769 430.23074,71.972467"
       id="path3956-5-9-2-5-0"
       inkscape:connector-curvature="0"
       sodipodi:nodetypes="cc" />
    <path
       sodipodi:type="arc"
       style="fill:#f05033;fill-opacity:1;fill-rule:nonzero;stroke:#f05033;stroke-width:10.71000004;stroke-miterlimit:4;stroke-opacity:1;stroke-dasharray:none"
       id="path3822"
       sodipodi:cx="256.57874"
       sodipodi:cy="-71.655724"
       sodipodi:rx="166.67517"
       sodipodi:ry="166.67517"
       d="m 423.25391,-71.655724 c 0,92.052155 -74.62302,166.675171 -166.67517,166.675171 -92.05216,0 -166.675176,-74.623016 -166.675176,-166.675171 0,-92.052156 74.623016,-166.675166 166.675176,-166.675166 92.05215,0 166.67517,74.62301 166.67517,166.675166 z"
       transform="matrix(0.10823162,0,0,0.10823162,204.27436,76.931288)" />
    <path
       sodipodi:type="arc"
       style="fill:#f05033;fill-opacity:1;fill-rule:nonzero;stroke:#f05033;stroke-width:10.71000004;stroke-miterlimit:4;stroke-opacity:1;stroke-dasharray:none"
       id="path3822-5"
       sodipodi:cx="256.57874"
       sodipodi:cy="-71.655724"
       sodipodi:rx="166.67517"
       sodipodi:ry="166.67517"
       d="m 423.25391,-71.655724 c 0,92.052155 -74.62302,166.675171 -166.67517,166.675171 -92.05216,0 -166.675176,-74.623016 -166.675176,-166.675171 0,-92.052156 74.623016,-166.675166 166.675176,-166.675166 92.05215,0 166.67517,74.62301 166.67517,166.675166 z"
       transform="matrix(0.10823162,0,0,0.10823162,270.98556,76.663046)" />
    <path
       sodipodi:type="arc"
       style="fill:#f05033;fill-opacity:1;fill-rule:nonzero;stroke:#f05033;stroke-width:10.71000004;stroke-miterlimit:4;stroke-opacity:1;stroke-dasharray:none"
       id="path3822-8"
       sodipodi:cx="256.57874"
       sodipodi:cy="-71.655724"
       sodipodi:rx="166.67517"
       sodipodi:ry="166.67517"
       d="m 423.25391,-71.655724 c 0,92.052155 -74.62302,166.675171 -166.67517,166.675171 -92.05216,0 -166.675176,-74.623016 -166.675176,-166.675171 0,-92.052156 74.623016,-166.675166 166.675176,-166.675166 92.05215,0 166.67517,74.62301 166.67517,166.675166 z"
       transform="matrix(0.10823162,0,0,0.10823162,336.96305,76.797174)" />
    <path
       sodipodi:type="arc"
       style="fill:#f05033;fill-opacity:1;fill-rule:nonzero;stroke:#f05033;stroke-width:10.71000004;stroke-miterlimit:4;stroke-opacity:1;stroke-dasharray:none"
       id="path3822-5-6"
       sodipodi:cx="256.57874"
       sodipodi:cy="-71.655724"
       sodipodi:rx="166.67517"
       sodipodi:ry="166.67517"
       d="m 423.25391,-71.655724 c 0,92.052155 -74.62302,166.675171 -166.67517,166.675171 -92.05216,0 -166.675176,-74.623016 -166.675176,-166.675171 0,-92.052156 74.623016,-166.675166 166.675176,-166.675166 92.05215,0 166.67517,74.62301 166.67517,166.675166 z"
       transform="matrix(0.10823162,0,0,0.10823162,403.67424,76.528931)" />
    <path
       sodipodi:type="arc"
       style="fill:#f05033;fill-opacity:1;fill-rule:nonzero;stroke:#f05033;stroke-width:10.71000004;stroke-miterlimit:4;stroke-opacity:1;stroke-dasharray:none"
       id="path3822-5-7"
       sodipodi:cx="256.57874"
       sodipodi:cy="-71.655724"
       sodipodi:rx="166.67517"
       sodipodi:ry="166.67517"
       d="m 423.25391,-71.655724 c 0,92.052155 -74.62302,166.675171 -166.67517,166.675171 -92.05216,0 -166.675176,-74.623016 -166.675176,-166.675171 0,-92.052156 74.623016,-166.675166 166.675176,-166.675166 92.05215,0 166.67517,74.62301 166.67517,166.675166 z"
       transform="matrix(0.10823162,0,0,0.10823162,470.59123,76.321977)" />
    <path
       sodipodi:type="arc"
       style="fill:#f05033;fill-opacity:1;fill-rule:nonzero;stroke:#f05033;stroke-width:10.71000004;stroke-miterlimit:4;stroke-opacity:1;stroke-dasharray:none"
       id="path3822-8-8"
       sodipodi:cx="256.57874"
       sodipodi:cy="-71.655724"
       sodipodi:rx="166.67517"
       sodipodi:ry="166.67517"
       d="m 423.25391,-71.655724 c 0,92.052155 -74.62302,166.675171 -166.67517,166.675171 -92.05216,0 -166.675176,-74.623016 -166.675176,-166.675171 0,-92.052156 74.623016,-166.675166 166.675176,-166.675166 92.05215,0 166.67517,74.62301 166.67517,166.675166 z"
       transform="matrix(0.10823162,0,0,0.10823162,536.56872,76.456104)" />
    <path
       sodipodi:type="arc"
       style="fill:#f05033;fill-opacity:1;fill-rule:nonzero;stroke:#f05033;stroke-width:10.71000004;stroke-miterlimit:4;stroke-opacity:1;stroke-dasharray:none"
       id="path3822-5-6-8"
       sodipodi:cx="256.57874"
       sodipodi:cy="-71.655724"
       sodipodi:rx="166.67517"
       sodipodi:ry="166.67517"
       d="m 423.25391,-71.655724 c 0,92.052155 -74.62302,166.675171 -166.67517,166.675171 -92.05216,0 -166.675176,-74.623016 -166.675176,-166.675171 0,-92.052156 74.623016,-166.675166 166.675176,-166.675166 92.05215,0 166.67517,74.62301 166.67517,166.675166 z"
       transform="matrix(0.10823162,0,0,0.10823162,603.27992,76.187862)" />
    <path
       sodipodi:type="arc"
       style="fill:#f05033;fill-opacity:1;fill-rule:nonzero;stroke:#f05033;stroke-width:10.71000004;stroke-miterlimit:4;stroke-opacity:1;stroke-dasharray:none"
       id="path3822-7"
       sodipodi:cx="256.57874"
       sodipodi:cy="-71.655724"
       sodipodi:rx="166.67517"
       sodipodi:ry="166.67517"
       d="m 423.25391,-71.655724 c 0,92.052155 -74.62302,166.675171 -166.67517,166.675171 -92.05216,0 -166.675176,-74.623016 -166.675176,-166.675171 0,-92.052156 74.623016,-166.675166 166.675176,-166.675166 92.05215,0 166.67517,74.62301 166.67517,166.675166 z"
       transform="matrix(0.10823162,0,0,0.10823162,327.92607,162.61668)" />
    <path
       sodipodi:type="arc"
       style="fill:#f05033;fill-opacity:1;fill-rule:nonzero;stroke:#f05033;stroke-width:10.71000004;stroke-miterlimit:4;stroke-opacity:1;stroke-dasharray:none"
       id="path3822-5-61"
       sodipodi:cx="256.57874"
       sodipodi:cy="-71.655724"
       sodipodi:rx="166.67517"
       sodipodi:ry="166.67517"
       d="m 423.25391,-71.655724 c 0,92.052155 -74.62302,166.675171 -166.67517,166.675171 -92.05216,0 -166.675176,-74.623016 -166.675176,-166.675171 0,-92.052156 74.623016,-166.675166 166.675176,-166.675166 92.05215,0 166.67517,74.62301 166.67517,166.675166 z"
       transform="matrix(0.10823162,0,0,0.10823162,394.63727,162.34843)" />
    <path
       sodipodi:type="arc"
       style="fill:#f05033;fill-opacity:1;fill-rule:nonzero;stroke:#f05033;stroke-width:10.71000004;stroke-miterlimit:4;stroke-opacity:1;stroke-dasharray:none"
       id="path3822-8-5"
       sodipodi:cx="256.57874"
       sodipodi:cy="-71.655724"
       sodipodi:rx="166.67517"
       sodipodi:ry="166.67517"
       d="m 423.25391,-71.655724 c 0,92.052155 -74.62302,166.675171 -166.67517,166.675171 -92.05216,0 -166.675176,-74.623016 -166.675176,-166.675171 0,-92.052156 74.623016,-166.675166 166.675176,-166.675166 92.05215,0 166.67517,74.62301 166.67517,166.675166 z"
       transform="matrix(0.10823162,0,0,0.10823162,460.61476,162.48256)" />
    <path
       sodipodi:type="arc"
       style="fill:#f05033;fill-opacity:1;fill-rule:nonzero;stroke:#f05033;stroke-width:10.71000004;stroke-miterlimit:4;stroke-opacity:1;stroke-dasharray:none"
       id="path3822-5-7-9"
       sodipodi:cx="256.57874"
       sodipodi:cy="-71.655724"
       sodipodi:rx="166.67517"
       sodipodi:ry="166.67517"
       d="m 423.25391,-71.655724 c 0,92.052155 -74.62302,166.675171 -166.67517,166.675171 -92.05216,0 -166.675176,-74.623016 -166.675176,-166.675171 0,-92.052156 74.623016,-166.675166 166.675176,-166.675166 92.05215,0 166.67517,74.62301 166.67517,166.675166 z"
       transform="matrix(0.10823162,0,0,0.10823162,470.22885,-15.428201)" />
    <path
       sodipodi:type="arc"
       style="fill:#f05033;fill-opacity:1;fill-rule:nonzero;stroke:#f05033;stroke-width:10.71000004;stroke-miterlimit:4;stroke-opacity:1;stroke-dasharray:none"
       id="path3822-8-8-3"
       sodipodi:cx="256.57874"
       sodipodi:cy="-71.655724"
       sodipodi:rx="166.67517"
       sodipodi:ry="166.67517"
       d="m 423.25391,-71.655724 c 0,92.052155 -74.62302,166.675171 -166.67517,166.675171 -92.05216,0 -166.675176,-74.623016 -166.675176,-166.675171 0,-92.052156 74.623016,-166.675166 166.675176,-166.675166 92.05215,0 166.67517,74.62301 166.67517,166.675166 z"
       transform="matrix(0.10823162,0,0,0.10823162,536.20634,-15.294073)" />
    <path
       sodipodi:type="arc"
       style="fill:#f05033;fill-opacity:1;fill-rule:nonzero;stroke:#f05033;stroke-width:10.71000004;stroke-miterlimit:4;stroke-opacity:1;stroke-dasharray:none"
       id="path3822-5-6-8-9"
       sodipodi:cx="256.57874"
       sodipodi:cy="-71.655724"
       sodipodi:rx="166.67517"
       sodipodi:ry="166.67517"
       d="m 423.25391,-71.655724 c 0,92.052155 -74.62302,166.675171 -166.67517,166.675171 -92.05216,0 -166.675176,-74.623016 -166.675176,-166.675171 0,-92.052156 74.623016,-166.675166 166.675176,-166.675166 92.05215,0 166.67517,74.62301 166.67517,166.675166 z"
       transform="matrix(0.10823162,0,0,0.10823162,602.91753,-15.562315)" />
    <path
       sodipodi:type="arc"
       style="fill:#f05033;fill-opacity:1;fill-rule:nonzero;stroke:#f05033;stroke-width:10.71000004;stroke-miterlimit:4;stroke-opacity:1;stroke-dasharray:none"
       id="path3822-4"
       sodipodi:cx="256.57874"
       sodipodi:cy="-71.655724"
       sodipodi:rx="166.67517"
       sodipodi:ry="166.67517"
       d="m 423.25391,-71.655724 c 0,92.052155 -74.62302,166.675171 -166.67517,166.675171 -92.05216,0 -166.675176,-74.623016 -166.675176,-166.675171 0,-92.052156 74.623016,-166.675166 166.675176,-166.675166 92.05215,0 166.67517,74.62301 166.67517,166.675166 z"
       transform="matrix(0.10823162,0,0,0.10823162,137.29423,77.477122)" />
  </g>
</svg>
