<?xml version="1.0" encoding="UTF-8" standalone="no"?>
<!-- Created with Inkscape (http://www.inkscape.org/) -->

<svg
   xmlns:dc="http://purl.org/dc/elements/1.1/"
   xmlns:cc="http://creativecommons.org/ns#"
   xmlns:rdf="http://www.w3.org/1999/02/22-rdf-syntax-ns#"
   xmlns:svg="http://www.w3.org/2000/svg"
   xmlns="http://www.w3.org/2000/svg"
   xmlns:sodipodi="http://sodipodi.sourceforge.net/DTD/sodipodi-0.dtd"
   xmlns:inkscape="http://www.inkscape.org/namespaces/inkscape"
   width="578.80725"
   height="490.09409"
   id="svg2"
   version="1.1"
   inkscape:version="0.48.4 r9939"
   sodipodi:docname="file-server.svg">
  <defs
     id="defs4">
    <marker
       inkscape:stockid="Arrow1Lend"
       orient="auto"
       refY="0"
       refX="0"
       id="Arrow1Lend"
       style="overflow:visible">
      <path
         id="path3818"
         d="M 0,0 5,-5 -12.5,0 5,5 0,0 z"
         style="fill-rule:evenodd;stroke:#000000;stroke-width:1pt"
         transform="matrix(-0.8,0,0,-0.8,-10,0)"
         inkscape:connector-curvature="0" />
    </marker>
    <marker
       inkscape:stockid="TriangleOutL"
       orient="auto"
       refY="0"
       refX="0"
       id="TriangleOutL"
       style="overflow:visible">
      <path
         id="path3957"
         d="m 5.77,0 -8.65,5 0,-10 8.65,5 z"
         style="fill-rule:evenodd;stroke:#000000;stroke-width:1pt"
         transform="scale(0.8,0.8)"
         inkscape:connector-curvature="0" />
    </marker>
    <marker
       inkscape:stockid="EmptyTriangleOutL"
       orient="auto"
       refY="0"
       refX="0"
       id="EmptyTriangleOutL"
       style="overflow:visible">
      <path
         id="path3975"
         d="m 5.77,0 -8.65,5 0,-10 8.65,5 z"
         style="fill:#ffffff;fill-rule:evenodd;stroke:#000000;stroke-width:1pt"
         transform="matrix(0.8,0,0,0.8,-4.8,0)"
         inkscape:connector-curvature="0" />
    </marker>
    <marker
       inkscape:stockid="Arrow2Send"
       orient="auto"
       refY="0"
       refX="0"
       id="Arrow2Send"
       style="overflow:visible">
      <path
         id="path3848"
         style="fill-rule:evenodd;stroke-width:0.625;stroke-linejoin:round"
         d="M 8.7185878,4.0337352 -2.2072895,0.01601326 8.7185884,-4.0017078 c -1.7454984,2.3720609 -1.7354408,5.6174519 -6e-7,8.035443 z"
         transform="matrix(-0.3,0,0,-0.3,0.69,0)"
         inkscape:connector-curvature="0" />
    </marker>
    <marker
       inkscape:stockid="Arrow2Sstart"
       orient="auto"
       refY="0"
       refX="0"
       id="Arrow2Sstart"
       style="overflow:visible">
      <path
         id="path3845"
         style="fill-rule:evenodd;stroke-width:0.625;stroke-linejoin:round"
         d="M 8.7185878,4.0337352 -2.2072895,0.01601326 8.7185884,-4.0017078 c -1.7454984,2.3720609 -1.7354408,5.6174519 -6e-7,8.035443 z"
         transform="matrix(0.3,0,0,0.3,-0.69,0)"
         inkscape:connector-curvature="0" />
    </marker>
    <inkscape:perspective
       sodipodi:type="inkscape:persp3d"
       inkscape:vp_x="-251.61117 : 302.7009 : 1"
       inkscape:vp_y="0 : 390.84169 : 0"
       inkscape:vp_z="-74.20798 : 302.7009 : 1"
       inkscape:persp3d-origin="-162.90958 : 284.95017 : 1"
       id="perspective3793" />
  </defs>
  <sodipodi:namedview
     id="base"
     pagecolor="#ffffff"
     bordercolor="#666666"
     borderopacity="1.0"
     inkscape:pageopacity="0.0"
     inkscape:pageshadow="2"
     inkscape:zoom="0.98994949"
     inkscape:cx="-32.88088"
     inkscape:cy="76.927482"
     inkscape:document-units="px"
     inkscape:current-layer="layer1"
     showgrid="false"
     showguides="true"
     inkscape:guide-bbox="true"
     fit-margin-top="0"
     fit-margin-left="0"
     fit-margin-right="0"
     fit-margin-bottom="0"
     inkscape:window-width="1920"
     inkscape:window-height="1015"
     inkscape:window-x="0"
     inkscape:window-y="28"
     inkscape:window-maximized="1">
    <sodipodi:guide
       orientation="1,0"
       position="-1131.1845,165.84612"
       id="guide3773" />
    <sodipodi:guide
       orientation="-0.70710678,0.70710678"
       position="-545.53822,520.86408"
       id="guide3848" />
  </sodipodi:namedview>
  <metadata
     id="metadata7">
    <rdf:RDF>
      <cc:Work
         rdf:about="">
        <dc:format>image/svg+xml</dc:format>
        <dc:type
           rdf:resource="http://purl.org/dc/dcmitype/StillImage" />
        <dc:title></dc:title>
      </cc:Work>
    </rdf:RDF>
  </metadata>
  <g
     inkscape:label="Layer 1"
     inkscape:groupmode="layer"
     id="layer1"
     transform="translate(-184.04172,-13.828559)">
    <rect
       style="fill:#ffffff;stroke:#000000;stroke-width:10;stroke-miterlimit:4;stroke-opacity:1;stroke-dasharray:none"
       id="rect3028-0"
       width="189.90868"
       height="307.27869"
       x="380.96564"
       y="121.35328"
       ry="24.243664" />
    <path
       style="fill:none;stroke:#000000;stroke-width:10;stroke-linecap:butt;stroke-linejoin:miter;stroke-miterlimit:4;stroke-opacity:1;stroke-dasharray:none"
       d="m 408.30065,159.73908 124.24877,0"
       id="path3030-29"
       inkscape:connector-curvature="0" />
    <path
       style="fill:none;stroke:#000000;stroke-width:10;stroke-linecap:butt;stroke-linejoin:miter;stroke-miterlimit:4;stroke-opacity:1;stroke-dasharray:none"
       d="m 408.74481,189.03351 124.24877,0"
       id="path3030-2-8"
       inkscape:connector-curvature="0" />
    <path
       style="fill:none;stroke:#000000;stroke-width:10;stroke-linecap:butt;stroke-linejoin:miter;stroke-miterlimit:4;stroke-opacity:1;stroke-dasharray:none"
       d="m 408.01765,221.86347 37.88074,0"
       id="path3030-0-7"
       inkscape:connector-curvature="0"
       sodipodi:nodetypes="cc" />
    <path
       style="fill:none;stroke:#000000;stroke-width:10;stroke-linecap:butt;stroke-linejoin:miter;stroke-miterlimit:4;stroke-opacity:1;stroke-dasharray:none"
       d="m 408.46181,251.1579 92.42897,0"
       id="path3030-2-6-0"
       inkscape:connector-curvature="0"
       sodipodi:nodetypes="cc" />
    <path
       style="fill:none;stroke:#000000;stroke-width:10;stroke-linecap:butt;stroke-linejoin:miter;stroke-miterlimit:4;stroke-opacity:1;stroke-dasharray:none"
       d="m 408.52272,303.68582 124.24877,0"
       id="path3030-6-5"
       inkscape:connector-curvature="0" />
    <path
       style="fill:none;stroke:#000000;stroke-width:10;stroke-linecap:butt;stroke-linejoin:miter;stroke-miterlimit:4;stroke-opacity:1;stroke-dasharray:none"
       d="m 408.50261,332.98024 63.01232,0"
       id="path3030-2-2-7"
       inkscape:connector-curvature="0" />
    <path
       style="fill:none;stroke:#000000;stroke-width:10;stroke-linecap:butt;stroke-linejoin:miter;stroke-miterlimit:4;stroke-opacity:1;stroke-dasharray:none"
       d="m 408.52273,355.14267 88.38835,0"
       id="path3030-3-3"
       inkscape:connector-curvature="0"
       sodipodi:nodetypes="cc" />
    <path
       style="fill:none;stroke:#000000;stroke-width:10;stroke-linecap:butt;stroke-linejoin:miter;stroke-miterlimit:4;stroke-opacity:1;stroke-dasharray:none"
       d="m 408.96689,378.4371 124.24877,0"
       id="path3030-2-0-1"
       inkscape:connector-curvature="0" />
    <rect
       style="fill:#ff5555;fill-opacity:0.4953271;stroke:#000000;stroke-width:1;stroke-miterlimit:4;stroke-opacity:1;stroke-dasharray:none"
       id="rect3891-9"
       width="86.873116"
       height="26.263966"
       x="452.68646"
       y="291.0386"
       ry="0" />
    <rect
       style="fill:#88aa00;fill-opacity:0.4953271;stroke:#000000;stroke-width:0.91695976;stroke-miterlimit:4;stroke-opacity:1;stroke-dasharray:none"
       id="rect3891-4-0"
       width="72.814018"
       height="26.347006"
       x="398.09668"
       y="208.18489"
       ry="0" />
    <rect
       style="fill:#ff5555;fill-opacity:0.4953271;stroke:#000000;stroke-width:1.89133918;stroke-miterlimit:4;stroke-opacity:1;stroke-dasharray:none"
       id="rect3891-5-8"
       width="146.59093"
       height="55.677204"
       x="398.58389"
       y="147.05276"
       ry="0" />
    <rect
       style="fill:#88aa00;fill-opacity:0.4953271;stroke:#000000;stroke-width:1.54183435;stroke-miterlimit:4;stroke-opacity:1;stroke-dasharray:none"
       id="rect3891-4-4-5"
       width="108.55463"
       height="49.965794"
       x="399.41928"
       y="319.61414"
       ry="0" />
    <path
       sodipodi:type="arc"
       style="fill:#000000;fill-opacity:1;stroke:#000000;stroke-width:1;stroke-miterlimit:4;stroke-opacity:1;stroke-dasharray:none"
       id="path3022-3"
       sodipodi:cx="-164.65486"
       sodipodi:cy="11.106322"
       sodipodi:rx="23.233509"
       sodipodi:ry="23.233509"
       d="m -141.42135,11.106322 c 0,12.831513 -10.402,23.233509 -23.23351,23.233509 -12.83151,0 -23.23351,-10.401996 -23.23351,-23.233509 0,-12.8315125 10.402,-23.233509 23.23351,-23.233509 12.83151,0 23.23351,10.4019965 23.23351,23.233509 z"
       transform="matrix(1.4706578,0,0,1.4706578,953.75459,194.4382)" />
    <path
       sodipodi:type="arc"
       style="fill:#000000;fill-opacity:1;stroke:#000000;stroke-width:1;stroke-miterlimit:4;stroke-opacity:1;stroke-dasharray:none"
       id="path3024-9"
       sodipodi:cx="-173.74623"
       sodipodi:cy="111.11143"
       sodipodi:rx="53.538086"
       sodipodi:ry="53.538086"
       d="m -120.20815,111.11143 c 0,29.56827 -23.96981,53.53808 -53.53808,53.53808 -29.56827,0 -53.53809,-23.96981 -53.53809,-53.53808 0,0 0,0 0,-1e-5 l 53.53809,1e-5 z"
       transform="matrix(0.93234495,0,0,-1.4762142,874.33784,481.9072)"
       sodipodi:start="0"
       sodipodi:end="3.1415927" />
    <path
       sodipodi:type="arc"
       style="fill:#000000;fill-opacity:1;stroke:#000000;stroke-width:1;stroke-miterlimit:4;stroke-opacity:1;stroke-dasharray:none"
       id="path3022-3-8"
       sodipodi:cx="-164.65486"
       sodipodi:cy="11.106322"
       sodipodi:rx="23.233509"
       sodipodi:ry="23.233509"
       d="m -141.42135,11.106322 c 0,12.831513 -10.402,23.233509 -23.23351,23.233509 -12.83151,0 -23.23351,-10.401996 -23.23351,-23.233509 0,-12.8315125 10.402,-23.233509 23.23351,-23.233509 12.83151,0 23.23351,10.4019965 23.23351,23.233509 z"
       transform="matrix(1.4706578,0,0,1.4706578,520.39915,32.39883)" />
    <path
       sodipodi:type="arc"
       style="fill:#000000;fill-opacity:1;stroke:#000000;stroke-width:1;stroke-miterlimit:4;stroke-opacity:1;stroke-dasharray:none"
       id="path3024-9-1"
       sodipodi:cx="-173.74623"
       sodipodi:cy="111.11143"
       sodipodi:rx="53.538086"
       sodipodi:ry="53.538086"
       d="m -120.20815,111.11143 c 0,29.56827 -23.96981,53.53808 -53.53808,53.53808 -29.56827,0 -53.53809,-23.96981 -53.53809,-53.53808 0,0 0,0 0,-1e-5 l 53.53809,1e-5 z"
       transform="matrix(0.93234495,0,0,-1.4762142,440.9824,319.86783)"
       sodipodi:start="0"
       sodipodi:end="3.1415927" />
    <path
       sodipodi:type="arc"
       style="fill:#000000;fill-opacity:1;stroke:#000000;stroke-width:1;stroke-miterlimit:4;stroke-opacity:1;stroke-dasharray:none"
       id="path3022-3-3"
       sodipodi:cx="-164.65486"
       sodipodi:cy="11.106322"
       sodipodi:rx="23.233509"
       sodipodi:ry="23.233509"
       d="m -141.42135,11.106322 c 0,12.831513 -10.402,23.233509 -23.23351,23.233509 -12.83151,0 -23.23351,-10.401996 -23.23351,-23.233509 0,-12.8315125 10.402,-23.233509 23.23351,-23.233509 12.83151,0 23.23351,10.4019965 23.23351,23.233509 z"
       transform="matrix(1.4706578,0,0,1.4706578,475.95244,379.89131)" />
    <path
       sodipodi:type="arc"
       style="fill:#000000;fill-opacity:1;stroke:#000000;stroke-width:1;stroke-miterlimit:4;stroke-opacity:1;stroke-dasharray:none"
       id="path3024-9-5"
       sodipodi:cx="-173.74623"
       sodipodi:cy="111.11143"
       sodipodi:rx="53.538086"
       sodipodi:ry="53.538086"
       d="m -120.20815,111.11143 c 0,29.56827 -23.96981,53.53808 -53.53808,53.53808 -29.56827,0 -53.53809,-23.96981 -53.53809,-53.53808 0,0 0,0 0,-1e-5 l 53.53809,1e-5 z"
       transform="matrix(0.93234495,0,0,-1.4762142,396.53569,667.36031)"
       sodipodi:start="0"
       sodipodi:end="3.1415927" />
  </g>
</svg>
