<?xml version="1.0" encoding="UTF-8" standalone="no"?>
<!-- Created with Inkscape (http://www.inkscape.org/) -->

<svg
   xmlns:dc="http://purl.org/dc/elements/1.1/"
   xmlns:cc="http://creativecommons.org/ns#"
   xmlns:rdf="http://www.w3.org/1999/02/22-rdf-syntax-ns#"
   xmlns:svg="http://www.w3.org/2000/svg"
   xmlns="http://www.w3.org/2000/svg"
   xmlns:sodipodi="http://sodipodi.sourceforge.net/DTD/sodipodi-0.dtd"
   xmlns:inkscape="http://www.inkscape.org/namespaces/inkscape"
   width="609.12201"
   height="227.19009"
   id="svg2"
   version="1.1"
   inkscape:version="0.48.4 r9939"
   sodipodi:docname="templates.svg">
  <defs
     id="defs4">
    <marker
       inkscape:stockid="Arrow1Lend"
       orient="auto"
       refY="0"
       refX="0"
       id="Arrow1Lend"
       style="overflow:visible">
      <path
         id="path3818"
         d="M 0,0 5,-5 -12.5,0 5,5 0,0 z"
         style="fill-rule:evenodd;stroke:#000000;stroke-width:1pt"
         transform="matrix(-0.8,0,0,-0.8,-10,0)"
         inkscape:connector-curvature="0" />
    </marker>
    <marker
       inkscape:stockid="TriangleOutL"
       orient="auto"
       refY="0"
       refX="0"
       id="TriangleOutL"
       style="overflow:visible">
      <path
         id="path3957"
         d="m 5.77,0 -8.65,5 0,-10 8.65,5 z"
         style="fill-rule:evenodd;stroke:#000000;stroke-width:1pt"
         transform="scale(0.8,0.8)"
         inkscape:connector-curvature="0" />
    </marker>
    <marker
       inkscape:stockid="EmptyTriangleOutL"
       orient="auto"
       refY="0"
       refX="0"
       id="EmptyTriangleOutL"
       style="overflow:visible">
      <path
         id="path3975"
         d="m 5.77,0 -8.65,5 0,-10 8.65,5 z"
         style="fill:#ffffff;fill-rule:evenodd;stroke:#000000;stroke-width:1pt"
         transform="matrix(0.8,0,0,0.8,-4.8,0)"
         inkscape:connector-curvature="0" />
    </marker>
    <marker
       inkscape:stockid="Arrow2Send"
       orient="auto"
       refY="0"
       refX="0"
       id="Arrow2Send"
       style="overflow:visible">
      <path
         id="path3848"
         style="fill-rule:evenodd;stroke-width:0.625;stroke-linejoin:round"
         d="M 8.7185878,4.0337352 -2.2072895,0.01601326 8.7185884,-4.0017078 c -1.7454984,2.3720609 -1.7354408,5.6174519 -6e-7,8.035443 z"
         transform="matrix(-0.3,0,0,-0.3,0.69,0)"
         inkscape:connector-curvature="0" />
    </marker>
    <marker
       inkscape:stockid="Arrow2Sstart"
       orient="auto"
       refY="0"
       refX="0"
       id="Arrow2Sstart"
       style="overflow:visible">
      <path
         id="path3845"
         style="fill-rule:evenodd;stroke-width:0.625;stroke-linejoin:round"
         d="M 8.7185878,4.0337352 -2.2072895,0.01601326 8.7185884,-4.0017078 c -1.7454984,2.3720609 -1.7354408,5.6174519 -6e-7,8.035443 z"
         transform="matrix(0.3,0,0,0.3,-0.69,0)"
         inkscape:connector-curvature="0" />
    </marker>
    <inkscape:perspective
       sodipodi:type="inkscape:persp3d"
       inkscape:vp_x="-251.61117 : 302.7009 : 1"
       inkscape:vp_y="0 : 390.84169 : 0"
       inkscape:vp_z="-74.20798 : 302.7009 : 1"
       inkscape:persp3d-origin="-162.90958 : 284.95017 : 1"
       id="perspective3793" />
  </defs>
  <sodipodi:namedview
     id="base"
     pagecolor="#ffffff"
     bordercolor="#666666"
     borderopacity="1.0"
     inkscape:pageopacity="0.0"
     inkscape:pageshadow="2"
     inkscape:zoom="0.98994949"
     inkscape:cx="265.09887"
     inkscape:cy="150.15704"
     inkscape:document-units="px"
     inkscape:current-layer="layer1"
     showgrid="false"
     showguides="true"
     inkscape:guide-bbox="true"
     fit-margin-top="0"
     fit-margin-left="0"
     fit-margin-right="0"
     fit-margin-bottom="0"
     inkscape:window-width="1440"
     inkscape:window-height="863"
     inkscape:window-x="0"
     inkscape:window-y="0"
     inkscape:window-maximized="1">
    <sodipodi:guide
       orientation="1,0"
       position="-1028.0931,43.915326"
       id="guide3773" />
  </sodipodi:namedview>
  <metadata
     id="metadata7">
    <rdf:RDF>
      <cc:Work
         rdf:about="">
        <dc:format>image/svg+xml</dc:format>
        <dc:type
           rdf:resource="http://purl.org/dc/dcmitype/StillImage" />
        <dc:title />
      </cc:Work>
    </rdf:RDF>
  </metadata>
  <g
     inkscape:label="Layer 1"
     inkscape:groupmode="layer"
     id="layer1"
     transform="translate(-80.950311,-154.80173)">
    <path
       transform="matrix(0.4601503,0,0,0.4601503,75.841899,137.36496)"
       sodipodi:type="arc"
       style="fill:#88aa00;fill-opacity:1;fill-rule:nonzero;stroke:none"
       id="path3020-8-0"
       sodipodi:cx="195.46452"
       sodipodi:cy="128.56747"
       sodipodi:rx="82.327431"
       sodipodi:ry="82.327431"
       d="m 277.79195,128.56747 c 0,45.46819 -36.85924,82.32744 -82.32743,82.32744 -45.46818,0 -82.32743,-36.85925 -82.32743,-82.32744 0,-45.46818 36.85925,-82.327426 82.32743,-82.327426 45.46819,0 82.32743,36.859246 82.32743,82.327426 z" />
    <path
       transform="matrix(0.4601503,0,0,0.4601503,28.890244,272.8708)"
       sodipodi:type="arc"
       style="fill:#88aa00;fill-opacity:1;fill-rule:nonzero;stroke:none"
       id="path3020-8-8"
       sodipodi:cx="195.46452"
       sodipodi:cy="128.56747"
       sodipodi:rx="82.327431"
       sodipodi:ry="82.327431"
       d="m 277.79195,128.56747 c 0,45.46819 -36.85924,82.32744 -82.32743,82.32744 -45.46818,0 -82.32743,-36.85925 -82.32743,-82.32744 0,-45.46818 36.85925,-82.327426 82.32743,-82.327426 45.46819,0 82.32743,36.859246 82.32743,82.327426 z" />
    <path
       transform="matrix(0.4601503,0,0,0.4601503,149.59894,225.57547)"
       sodipodi:type="arc"
       style="fill:#88aa00;fill-opacity:1;fill-rule:nonzero;stroke:none"
       id="path3020-8"
       sodipodi:cx="195.46452"
       sodipodi:cy="128.56747"
       sodipodi:rx="82.327431"
       sodipodi:ry="82.327431"
       d="m 277.79195,128.56747 c 0,45.46819 -36.85924,82.32744 -82.32743,82.32744 -45.46818,0 -82.32743,-36.85925 -82.32743,-82.32744 0,-45.46818 36.85925,-82.327426 82.32743,-82.327426 45.46819,0 82.32743,36.859246 82.32743,82.327426 z" />
    <path
       sodipodi:nodetypes="cc"
       style="fill:none;stroke:#cccccc;stroke-width:16.40109634;stroke-linecap:butt;stroke-linejoin:miter;stroke-miterlimit:4;stroke-opacity:1;stroke-dasharray:none;marker-end:none"
       d="m 368.38717,226.90891 78.88995,0"
       id="path3809"
       inkscape:connector-curvature="0" />
    <path
       style="fill:none;stroke:#cccccc;stroke-width:14.5373354;stroke-linecap:butt;stroke-linejoin:miter;stroke-miterlimit:4;stroke-opacity:1;stroke-dasharray:none;marker-end:none"
       d="m 427.06802,204.3574 24.01709,27.8233"
       id="path3809-4"
       inkscape:connector-curvature="0"
       sodipodi:nodetypes="cc" />
    <path
       style="fill:none;stroke:#cccccc;stroke-width:14.5373354;stroke-linecap:butt;stroke-linejoin:miter;stroke-miterlimit:4;stroke-opacity:1;stroke-dasharray:none;marker-end:none"
       d="M 425.89649,251.94988 449.9136,224.12657"
       id="path3809-4-4"
       inkscape:connector-curvature="0"
       sodipodi:nodetypes="cc" />
    <rect
       style="fill:#e6e6e6;fill-opacity:1;fill-rule:nonzero;stroke:none"
       id="rect3021"
       width="140.41121"
       height="227.19009"
       x="468.71078"
       y="9.5225878"
       transform="translate(80.950311,145.27914)" />
    <path
       sodipodi:nodetypes="cc"
       style="fill:none;stroke:#cccccc;stroke-width:16.40109634;stroke-linecap:butt;stroke-linejoin:miter;stroke-miterlimit:4;stroke-opacity:1;stroke-dasharray:none;marker-end:none"
       d="m 368.38716,311.20171 78.88996,0"
       id="path3809-7"
       inkscape:connector-curvature="0" />
    <path
       style="fill:none;stroke:#cccccc;stroke-width:14.5373354;stroke-linecap:butt;stroke-linejoin:miter;stroke-miterlimit:4;stroke-opacity:1;stroke-dasharray:none;marker-end:none"
       d="m 427.06802,288.6502 24.01709,27.8233"
       id="path3809-4-3"
       inkscape:connector-curvature="0"
       sodipodi:nodetypes="cc" />
    <path
       style="fill:none;stroke:#cccccc;stroke-width:14.5373354;stroke-linecap:butt;stroke-linejoin:miter;stroke-miterlimit:4;stroke-opacity:1;stroke-dasharray:none;marker-end:none"
       d="M 425.89649,336.24268 449.9136,308.41937"
       id="path3809-4-4-4"
       inkscape:connector-curvature="0"
       sodipodi:nodetypes="cc" />
    <text
       xml:space="preserve"
       style="font-size:30px;font-style:normal;font-variant:normal;font-stretch:normal;line-height:125%;letter-spacing:0px;word-spacing:0px;fill:#000000;fill-opacity:1;stroke:none;font-family:CPMono_v07;-inkscape-font-specification:CPMono_v07 Semi-Light"
       x="564.87427"
       y="209.34996"
       id="text3049"
       sodipodi:linespacing="125%"><tspan
         sodipodi:role="line"
         id="tspan3051"
         x="564.87427"
         y="209.34996">&lt;HTML&gt;</tspan></text>
    <path
       transform="matrix(0.12893674,0,0,0.12893674,591.4137,245.23429)"
       sodipodi:type="arc"
       style="fill:#88aa00;fill-opacity:1;fill-rule:nonzero;stroke:none"
       id="path3020-8-0-1"
       sodipodi:cx="195.46452"
       sodipodi:cy="128.56747"
       sodipodi:rx="82.327431"
       sodipodi:ry="82.327431"
       d="m 277.79195,128.56747 c 0,45.46819 -36.85924,82.32744 -82.32743,82.32744 -45.46818,0 -82.32743,-36.85925 -82.32743,-82.32744 0,-45.46818 36.85925,-82.327426 82.32743,-82.327426 45.46819,0 82.32743,36.859246 82.32743,82.327426 z" />
    <path
       transform="matrix(0.12893674,0,0,0.12893674,578.25758,283.2038)"
       sodipodi:type="arc"
       style="fill:#88aa00;fill-opacity:1;fill-rule:nonzero;stroke:none"
       id="path3020-8-8-1"
       sodipodi:cx="195.46452"
       sodipodi:cy="128.56747"
       sodipodi:rx="82.327431"
       sodipodi:ry="82.327431"
       d="m 277.79195,128.56747 c 0,45.46819 -36.85924,82.32744 -82.32743,82.32744 -45.46818,0 -82.32743,-36.85925 -82.32743,-82.32744 0,-45.46818 36.85925,-82.327426 82.32743,-82.327426 45.46819,0 82.32743,36.859246 82.32743,82.327426 z" />
    <path
       transform="matrix(0.12893674,0,0,0.12893674,612.08085,269.95138)"
       sodipodi:type="arc"
       style="fill:#88aa00;fill-opacity:1;fill-rule:nonzero;stroke:none"
       id="path3020-8-87"
       sodipodi:cx="195.46452"
       sodipodi:cy="128.56747"
       sodipodi:rx="82.327431"
       sodipodi:ry="82.327431"
       d="m 277.79195,128.56747 c 0,45.46819 -36.85924,82.32744 -82.32743,82.32744 -45.46818,0 -82.32743,-36.85925 -82.32743,-82.32744 0,-45.46818 36.85925,-82.327426 82.32743,-82.327426 45.46819,0 82.32743,36.859246 82.32743,82.327426 z" />
  </g>
</svg>
